<?xml version="1.0" encoding="UTF-8"?>
<svg id="Layer_1" data-name="Layer 1" xmlns="http://www.w3.org/2000/svg" viewBox="0 0 153.88 177.83">
  <defs>
    <style>
      .cls-1 {
        fill: #030303;
      }

      .cls-1, .cls-2, .cls-3, .cls-4, .cls-5 {
        stroke-width: 0px;
      }

      .cls-2 {
        fill: #121213;
      }

      .cls-3 {
        fill: #141314;
      }

      .cls-4 {
        fill: #030304;
      }

      .cls-5 {
        fill: #faf9f8;
      }
    </style>
  </defs>
  <path class="cls-2" d="M51.43.02c2.02,0,4.04,0,6.06,0,4.21,0,8.43.01,12.64.04,5.38.03,10.75.03,16.12,0,4.16-.01,8.33,0,12.49.01,1.98,0,3.96,0,5.94,0,14.71-.03,26.54.85,37.7,11.44.09.09.18.18.27.27,7.74,8.53,11.02,17.84,11.03,29.23,0,.84,0,1.69.02,2.55.01,2.79.02,5.57.03,8.36,0,1.94.01,3.89.02,5.83.01,4.08.02,8.15.02,12.23,0,5.2.03,10.41.06,15.61.02,4.02.02,8.03.03,12.05,0,1.92.01,3.84.02,5.75.07,11.62.14,22.14-6.04,32.42l-1.19,2.06c-.09.16-.2.31-.31.46-1.82,2.3-1.87,2.34-3.78,3.75-4.26,3.13-4.46,3.28-6.43,7.53-.2.43-.32.9-.35,1.37-.16,2.77-.16,5.49-.07,8.28.16,12.09.17,12.53-2.84,15.97-.23.26-.5.5-.8.69-3,1.93-4.44,2.07-7.9,1.77-.43-.04-.86-.16-1.26-.34-1.81-.84-2.01-.98-4.21-2.47-.94-.63-1.88-1.26-2.85-1.91-1.11-.78-2.23-1.56-3.34-2.34-.68-.47-1.35-.94-2.05-1.43-13.96-9.74-14.24-9.93-17.69-13.02-.14-.12-.29-.25-.45-.35-5.04-3.43-10.57-2.82-16.5-2.72-1.22,0-2.45,0-3.71,0-5.22-.01-10.43.03-15.65.07-3.82.02-7.64.01-11.46,0-1.16.02-2.32.04-3.51.06-12.1-.04-22.1-3.69-30.76-12.14-.09-.08-.17-.18-.25-.27C-.05,129.03.05,115.92.08,100.85c0-1.93,0-3.86-.02-5.79,0-4.03,0-8.07,0-12.1.01-5.14,0-10.28-.04-15.42-.02-3.98-.02-7.97-.01-11.95,0-1.89,0-3.79-.02-5.68-.09-15.42,1.36-27.45,12.26-39.13C23.58-.16,36.66-.09,51.43.02ZM21.44,24.1c-.44.31-.82.71-1.08,1.18-3.29,5.67-4.28,10.31-4.24,16.93,0,.83-.01,1.65-.02,2.51-.02,2.72-.01,5.43,0,8.15,0,1.9,0,3.8-.02,5.7,0,3.97,0,7.95,0,11.92.01,5.08,0,10.16-.04,15.23-.02,3.92-.02,7.84-.01,11.76,0,1.87,0,3.74-.02,5.62-.01,2.62,0,5.24.01,7.87,0,.76-.02,1.53-.03,2.32.1,7.31,3.1,13.79,8.19,19.03.22.23.48.44.76.61,6.85,4.24,12.53,4.14,20.57,3.86,2.57-.03,5.14-.07,7.71-.09,4.01-.06,8.02-.15,12.02-.29,18.13-.58,30.23.84,43.91,13.34.06.06.13.12.2.17,1.4,1.13,2.87,2.15,4.38,3.14,2.49,1.62,5.78-.19,5.78-3.16v-10.15c0-1.79,1.26-3.33,3.02-3.68l1.35-.27c.42-.08.83-.24,1.19-.45,6.25-3.71,10.03-8.36,12.32-15.3.08-.24.14-.5.17-.76.36-2.69.38-5.34.37-8.05,0-.81.02-1.63.03-2.47.02-2.67.02-5.35.02-8.02,0-1.87.01-3.74.02-5.62.01-3.92.02-7.84,0-11.75,0-5,.02-10,.07-15,.03-3.86.03-7.73.03-11.59,0-1.84.01-3.68.03-5.53.1-11.14-.12-19.78-7.39-28.71-.17-.2-.36-.39-.56-.56l-1.6-1.31-1.67-1.42c-.16-.13-.33-.26-.5-.37-5.06-3.13-10.18-3.51-16.04-3.5q-1.19-.01-2.41-.02c-2.61-.02-5.23-.02-7.84-.03-1.83,0-3.66-.01-5.49-.02-3.83-.01-7.66-.02-11.49-.01-4.89,0-9.77-.03-14.66-.06-3.78-.02-7.55-.03-11.33-.03-1.8,0-3.6-.01-5.4-.03-17.06-.29-17.34-.3-30.32,8.94Z"/>
  <path class="cls-3" d="M73.9,31.55c1.39,0,2.79.02,4.18.04q1.07,0,2.15.01c1.76.01,3.52.03,5.28.05,7.86,18.87,15.58,37.79,23.16,56.77,1.36,3.4,2.72,6.79,4.07,10.18,1.06,2.65,2.12,5.3,3.18,7.95.74,1.86,1.49,3.72,2.23,5.58.44,1.11.88,2.22,1.34,3.36.39.98.78,1.95,1.18,2.96q.83,2.2.83,3.2h-17c-2.31-5.94-4.62-11.88-7-18h-39c-2.31,5.94-4.62,11.88-7,18h-17c1.91-5.87,3.96-11.63,6.26-17.35.31-.78.62-1.56.94-2.36,1.02-2.54,2.03-5.09,3.05-7.63.71-1.78,1.42-3.56,2.13-5.34,1.48-3.71,2.97-7.42,4.45-11.12,1.91-4.76,3.81-9.52,5.71-14.29,1.46-3.66,2.93-7.33,4.4-10.99.7-1.76,1.41-3.51,2.11-5.27.98-2.44,1.96-4.89,2.94-7.33q.44-1.1.88-2.21,2.45-6.08,6.5-6.2Z"/>
  <path class="cls-5" d="M77.52,52.65c2.7,2.7,3.68,5.88,5.04,9.38.29.73.57,1.45.87,2.2.6,1.54,1.2,3.07,1.8,4.61.92,2.36,1.84,4.72,2.77,7.08.58,1.49,1.17,2.98,1.75,4.47.28.71.56,1.42.84,2.15q1.93,4.98,1.93,6.09h-29c4.18-12.24,8.87-24.13,14-36Z"/>
  <path class="cls-4" d="M102.52,113.65q3,3.75,3,6h13c-.33-.99-.66-1.98-1-3h2c.66,1.65,1.32,3.3,2,5h-17q-2-5-2-8Z"/>
  <path class="cls-1" d="M51.52,115.65q1,3,0,6h-17c.66-1.65,1.32-3.3,2-5,.33.66.66,1.32,1,2q3.05.47,6.56.62c1.2.07,2.4.15,3.63.23.93.05,1.85.1,2.81.15l1-4Z"/>
</svg>